<?xml version="1.0" encoding="UTF-8"?>
<svg width="24" height="24" viewBox="0 0 24 24" fill="none" xmlns="http://www.w3.org/2000/svg">
    <path d="M20.25 5.25H3.75C3.33579 5.25 3 5.58579 3 6V18C3 18.4142 3.33579 18.75 3.75 18.75H20.25C20.6642 18.75 21 18.4142 21 18V6C21 5.58579 20.6642 5.25 20.25 5.25Z" stroke="currentColor" stroke-width="1.5" stroke-linecap="round" stroke-linejoin="round"/>
    <path d="M7.5 15.75C8.74264 15.75 9.75 14.7426 9.75 13.5C9.75 12.2574 8.74264 11.25 7.5 11.25C6.25736 11.25 5.25 12.2574 5.25 13.5C5.25 14.7426 6.25736 15.75 7.5 15.75Z" stroke="currentColor" stroke-width="1.5" stroke-linecap="round" stroke-linejoin="round"/>
    <path d="M13.5 8.25L16.5 11.25L13.5 14.25M16.5 11.25H11.25" stroke="currentColor" stroke-width="1.5" stroke-linecap="round" stroke-linejoin="round"/>
</svg> 